<svg width="6" height="17" viewBox="0 0 6 17" fill="none" xmlns="http://www.w3.org/2000/svg">
<g opacity="0.3">
<path fill-rule="evenodd" clip-rule="evenodd" d="M3.25001 7.00019C4.21649 7.00019 4.99997 7.78368 4.99997 8.75018C4.99997 9.71668 4.21649 10.5002 3.25001 10.5002C2.28353 10.5002 1.49997 9.71668 1.49997 8.75018C1.49997 7.78368 2.28353 7.00019 3.25001 7.00019Z" fill="black"/>
<path fill-rule="evenodd" clip-rule="evenodd" d="M3.25 1.00019C4.21648 1.00019 4.99996 1.78368 4.99996 2.75018C4.99996 3.71668 4.21648 4.50018 3.25 4.50018C2.28353 4.50018 1.49997 3.71668 1.49997 2.75018C1.49997 1.78368 2.28353 1.00019 3.25 1.00019Z" fill="black"/>
<path fill-rule="evenodd" clip-rule="evenodd" d="M3.25 13.0002C4.21648 13.0002 4.99996 13.7837 4.99996 14.7502C4.99996 15.7167 4.21648 16.5002 3.25 16.5002C2.28353 16.5002 1.49997 15.7167 1.49997 14.7502C1.49997 13.7837 2.28353 13.0002 3.25 13.0002Z" fill="black"/>
</g>
</svg>
